<?xml version="1.0" encoding="utf-8"?>
<!-- Generator: Adobe Illustrator 26.0.0, SVG Export Plug-In . SVG Version: 6.00 Build 0)  -->
<svg version="1.1" id="Capa_1" xmlns="http://www.w3.org/2000/svg" xmlns:xlink="http://www.w3.org/1999/xlink" x="0px" y="0px"
	 viewBox="0 0 200 200" style="enable-background:new 0 0 200 200;" xml:space="preserve">
<style type="text/css">
	.st0{fill:#1A1A1A;}
	.st1{fill:#FFFFFF;}
</style>
<rect x="-1" y="0" class="st0" width="202" height="200"/>
<g>
	<path class="st1" d="M6.7,110.9c-0.1-0.3-0.4-0.6-0.4-0.9c-0.2-2.3-0.4-4.7-0.4-7c-0.3-7.3,0.3-14.6,1.8-21.8
		c2.1-9.9,5.4-19.3,10.6-28c10.1-16.9,23.9-29.9,42-38.1c10.2-4.6,20.8-7.4,32-8.3c12.8-1,25.3,0.3,37.4,4.6c5.7,2,10.8,5,16,8
		c6.8,3.8,13,8.3,18.7,13.6c3.8,3.6,7.2,7.7,10.3,12c0.2,0.2,0.3,0.5,0.2,0.8c-0.9-1.2-1.9-2.3-2.8-3.5c0,0-0.1,0-0.1,0.1
		c0.1,0.3,0.3,0.6,0.5,1c-2.5-2.7-4.9-5.3-7.2-7.9c-0.1,0.1-0.1,0.1-0.2,0.2c9.5,10.3,17.4,21.6,20.9,35.4c-0.2-0.3-0.3-0.6-0.5-0.9
		c-2.8-6.8-5.8-13.4-10-19.5c-6.1-8.9-13.4-16.7-22.3-22.8c-9.9-6.9-20.8-11.9-32.5-14.6c-16.9-4-33.6-3-50,2.9
		c-15.4,5.6-28.6,14.5-39,27.3C21.5,55.7,15,69.7,12.3,85.5c-1.2,7-0.9,14-0.5,20.9c0.6,10.6,3.1,20.8,7.5,30.5
		c6.6,14.4,16.4,26.1,29.2,35.5c12.3,9,25.9,14.4,41,16.6c9.4,1.3,18.7,1.3,28-0.3c6.8-1.2,13.3-3.6,19.7-6.1
		c17-6.7,29.9-18.3,39.7-33.5c4.2-6.6,7.7-13.5,10.1-20.9c1.9-6,3.1-12.1,3.8-18.4c1.2-10.3,0.9-20.5-1.2-30.7
		c-0.5-2.4-1.2-4.8-1.8-7.2c-0.1-0.3-0.2-0.7-0.1-1c2.3,6.3,3.8,12.7,4.7,19.3c0-0.4,0-0.7,0.1-1.1c0.9,4.9,1.2,9.8,0.9,14.7
		c-0.3,4.9-0.8,9.7-1.2,13.9c1.8-8.4,1.9-17.5,1.4-26.7c0.2,1.9,0.4,3.9,0.5,5.8c1.2,17.4-2.6,33.8-10.8,49.1
		c-3.7,6.8-8.6,12.8-13.9,18.4c-10.8,11.4-23.7,19.5-38.5,24.6c-0.3,0.1-0.6,0.3-0.9,0.4c-0.2,0-0.3,0-0.5,0
		c-5.2,1.4-10.4,3.2-15.9,3.2c-2.9,0-5.7,0.6-8.6,0.9c2.2,0.1,4.4,0.3,6.6,0.1c5.3-0.6,10.6-1.7,15.8-3.2c0.9-0.3,1.8-0.6,2.7-1
		c1.2-0.4,2.5-0.7,3.7-1.1c12.4-4.5,23.7-11,33.4-20c0.2-0.2,0.5-0.4,0.8-0.5c-10.9,10.8-23.6,18.5-38.2,23
		c-14.7,4.5-29.6,5.3-44.7,2.9c1.6,0.3,3.1,0.6,4.9,0.9c-0.3,0.2-0.4,0.3-0.4,0.3c-14.7-2.1-28.4-6.8-40.8-15.1
		c-9.5-6.4-17.5-14.4-24.4-23.5c-6.6-8.8-11.3-18.5-14.4-29c-1.4-4.7-2.6-9.4-3.2-14.2c-0.1-0.4-0.1-0.9-0.1-1.3
		c0.1-0.1,0.3-0.3,0.3-0.4c0-0.5-0.1-1.1-0.1-1.6c-0.5-5.5-0.7-11-0.2-16.5c0.2-1.8,0.3-3.6,0.5-5.4c-0.5,2.7-0.8,5.4-0.9,8.1
		c-0.1,2.7-0.1,5.5,0,8.3C6.1,106.3,6.5,108.6,6.7,110.9z M63.6,14.2c1.8-0.6,3.6-1.2,5.4-1.9c0-0.1-0.1-0.2-0.1-0.3
		C67.1,12.8,65.3,13.5,63.6,14.2c-1.6,0.8-3.3,1.5-5,2.3c-0.3,0.1-0.7,0.2-1,0.4c-5.4,2.7-10.4,5.9-15.1,9.7
		c-9.5,7.6-17.6,16.5-23.8,27.1c-1,1.7-1.8,3.5-2.7,5.3c-0.6,1.1-1.2,2.2-1.8,3.2c0.1,0.1,0.2,0.1,0.4,0.2c0.5-1.1,0.9-2.3,1.4-3.4
		c0.3-0.3,0.6-0.7,0.8-1c2.6-4.8,5.5-9.3,8.8-13.6C34.4,33,45,23.7,57.8,17.1c0.3-0.1,0.5-0.4,0.8-0.6C60.2,15.8,61.9,15,63.6,14.2z
		 M11.9,74.1c-0.1-0.1-0.2-0.1-0.3-0.2c-0.2,0.3-0.5,0.6-0.6,1c-3.5,11.7-4.7,23.7-3.3,35.9c1.3,11.7,4.5,22.8,10,33.2
		c1,2,2.2,3.8,3.3,5.8c0.1,0,0.2-0.1,0.3-0.1C7,125.9,4.5,100.6,11.9,74.1z M53.6,21C69,12.5,85.5,8.4,103,8.6
		C85.4,7.9,68.9,12.1,53.6,21z M42.8,173.3c-0.1,0.1-0.1,0.1-0.2,0.2c3.1,2.1,6.3,4.3,9.4,6.4c0-0.1,0.1-0.1,0.1-0.2
		C49.1,177.6,46,175.5,42.8,173.3z M73.3,190.3c0-0.1,0.1-0.2,0.1-0.2c-2.9-1.1-5.8-2.1-8.7-3.2c0,0.1-0.1,0.2-0.1,0.2
		C67.4,188.2,70.4,189.3,73.3,190.3z M55.5,181.5c0,0.1-0.1,0.1-0.1,0.2c1.2,0.6,2.5,1.2,3.7,1.8c0-0.1,0.1-0.1,0.1-0.2
		C58,182.8,56.7,182.2,55.5,181.5z"/>
	<path class="st1" d="M168.7,78.3c-1.8,3.9-3.6,7.9-5.4,11.7c1.3,0.9,2.6,1.7,3.6,2.7c1,1,1.7,2.4,2.6,3.7c1.5-0.6,3.1-1.3,4.7-2.1
		c2.1-0.9,4.2-1.8,6.3-2.8c0.5-0.2,0.8-0.3,1.1,0.4c0.3,0.7,0,0.8-0.5,1c-3.5,1.4-7,2.8-10.6,4.2c-0.8,0.3-1,0.6-0.9,1.5
		c0.7,6.2-2.5,10.9-8.3,12.1c-5.3,1.1-10.5-1.6-12.2-6.3c-2-5.4,0-11.1,4.8-13.7c2.3-1.2,4.8-1.5,7.3-1c0.7,0.1,1,0,1.2-0.7
		c1.4-3.5,2.8-7,4.3-10.4C167.4,77.5,167.4,77.5,168.7,78.3z M154.3,103.7c0-0.1-0.1-0.2-0.1-0.3c0.7-0.3,1.3-0.6,2-0.9
		c0.9-0.3,1.3-0.8,1.7-1.7c1.1-2.8,2.3-5.6,3.4-8.4c0.3-0.7,0.2-1-0.4-1.3c-4-2.1-8.4,0-9,4.5c-0.6,4.4,0.6,8.4,3.6,11.8
		c0.8,0.9,2,1.7,3.2,2.2c2.8,1.3,6.1,0.3,7.4-2.2c1.5-2.7,1-5.5,0.3-8.3c-0.2,0-0.4,0-0.4,0c-2.6,1-5.1,2-7.7,3.1
		c-0.3,0.1-0.6,0.5-0.8,0.9c-0.4,0.7-0.7,1.5-1.1,2.3c-0.1,0-0.2-0.1-0.3-0.1c0.3-0.8,0.6-1.5,0.9-2.5
		C156,103.1,155.1,103.4,154.3,103.7z M162.4,92.2c-1.4,3.1-2.8,6.1-4.2,9.1c0.1,0.1,0.1,0.1,0.2,0.2c2.5-1.1,5.1-2.2,7.6-3.4
		C165.2,95.8,164.2,93.9,162.4,92.2z"/>
	<path class="st1" d="M31.1,92.9c-0.1,0.4-0.1,0.5-0.1,0.7c0,3.9,0,7.8,0,11.7c0,0.5,0,1,0.1,1.6c0.1,1.6,0.6,2.9,2.1,3.8
		c-1.2,0-2.5,0-4,0c1.5-1.1,1.3-2.4,1.3-3.8c0-3.9,0-7.9,0-11.8c0-0.5,0-1-0.1-1.4c-0.1-1.5-0.5-2.8-2-3.5c0-0.1,0.1-0.2,0.1-0.2
		c1.4,0,2.7,0,4.1,0c0.3,0,0.6,0.5,0.8,0.8c2,3.4,4.1,6.7,6.1,10.1c0.2,0.4,0.4,0.7,0.8,1.2c0.3-0.5,0.5-0.9,0.8-1.3
		c1.9-3.4,3.8-6.7,5.7-10.1c0.4-0.7,0.8-0.9,1.6-0.9c1,0.1,2.1,0,3.2,0.1c-2,1.2-2,3-2,4.9c0,4.1,0,8.3,0,12.4
		c0,1.2-0.1,2.5,1.1,3.4c-1.8,0-3.6,0-5.6,0c1.5-1.1,1.3-2.5,1.3-3.9c0-4.4,0-8.8,0-13.1c0-0.2,0-0.4,0-0.8
		c-0.2,0.3-0.4,0.5-0.5,0.6c-2.1,3.6-4.1,7.2-6.2,10.9c-0.6,1.1-0.9,1.1-1.5,0.1c-2.1-3.5-4.2-6.9-6.3-10.4
		C31.6,93.6,31.4,93.4,31.1,92.9z"/>
	<path class="st1" d="M82.5,104.4c0.2,0.4,0.4,0.9,0.7,1.3c1.6,2.9,3.9,4.7,7.4,4.6c1.8,0,3.2-1,3.7-2.5c0.5-1.5,0.1-3-1.4-4.1
		c-1.2-0.9-2.6-1.5-4-2.1c-1.1-0.5-2.2-0.9-3.3-1.5c-1.9-0.9-3-2.4-3-4.6c0-2.2,1-4,3-5c3.3-1.6,6.7-1.3,10,0
		c0.2,0.1,0.5,0.3,0.5,0.5c0,1.2,0,2.4-0.2,3.7c-0.2-0.4-0.4-0.7-0.6-1.1c-1.4-2.5-4.2-3.9-6.8-3.5c-1.8,0.3-3.1,1.3-3.4,2.8
		c-0.3,1.6,0.3,3,2,4c1.1,0.6,2.3,1.1,3.5,1.6c1.3,0.6,2.6,1,3.8,1.7c3.3,1.9,3.8,5.9,1.1,8.6c-1.7,1.7-3.8,2.3-6.1,2.2
		c-2.1-0.1-4-0.6-5.9-1.5c-0.6-0.3-1-0.7-1-1.5c0.1-1.2,0-2.4,0-3.5C82.3,104.4,82.4,104.4,82.5,104.4z"/>
	<path class="st1" d="M112.1,89.5c0.4,1,0.8,2,1.2,3c2.1,4.9,4.1,9.9,6.2,14.8c0.5,1.2,1.4,2.2,2.1,3.4c-1.7,0-3.5,0-5.5,0
		c1-0.9,0.6-1.7,0.3-2.5c-0.6-1.5-1.3-3-1.9-4.5c-0.2-0.5-0.5-0.7-1.1-0.7c-2.1,0-4.3,0-6.4,0c-0.6,0-0.9,0.1-1.1,0.7
		c-0.5,1.3-1,2.6-1.5,3.8c-0.4,1.1-0.9,2.2,0.8,3.2c-1.5,0-2.6,0-3.8,0c0.1-0.2,0.1-0.3,0.2-0.4c1.2-0.7,1.8-1.8,2.3-3
		c1.9-4.6,3.7-9.2,5.5-13.8c0.2-0.5,0.2-1.3,0-1.8c-0.3-0.8-0.1-1,0.6-1.3C110.6,90.2,111.3,89.9,112.1,89.5z M114,102.4
		c-1.3-3-2.5-5.9-3.8-9.1c-1.3,3.2-2.5,6.1-3.7,9.1C109.1,102.4,111.4,102.4,114,102.4z"/>
	<path class="st1" d="M77.4,110.6c-2.1,0-3.9,0-5.9,0c1.1-0.8,0.7-1.6,0.3-2.4c-0.6-1.5-1.3-3-1.9-4.6c-0.2-0.6-0.5-0.8-1.2-0.8
		c-2.1,0-4.3,0-6.4,0.1c-0.3,0-0.8,0.3-1,0.6c-0.6,1.3-1.2,2.7-1.7,4.1c-0.4,1-0.8,2.1,0.5,2.9c-1.1,0-2.2,0-3.3,0
		c2-1.4,2.5-3.6,3.3-5.5c1.5-3.6,2.9-7.2,4.3-10.7c0.5-1.1,0.9-2.2-0.1-3.4c1-0.5,1.9-0.9,3-1.4c0.2,0.5,0.4,0.8,0.6,1.2
		c2.1,5.1,4.3,10.2,6.4,15.4C75,107.8,75.7,109.4,77.4,110.6z M65.5,93.2c-1.3,3.2-2.5,6.1-3.7,9.1c2.6,0,5,0,7.5,0
		C68.1,99.3,66.9,96.4,65.5,93.2z"/>
	<path class="st1" d="M136.9,110.7c-1.6,0-3.2,0-4.8,0c-0.2,0-0.4,0-0.8-0.1c1.7-1.3,1.3-3,1.3-4.5c0-4.8,0-9.7,0-14.5
		c0-0.4,0-0.8,0-1.1c-2.4-0.6-3.9,0.1-6.3,2.9c0.1-1.1,0.1-2.3,0.2-3.4c0-0.1,0.3-0.2,0.5-0.2c5,0,9.9,0,15,0
		c0.1,1.2,0.1,2.4,0.2,3.6c-0.9-0.9-1.7-2-2.7-2.5c-1-0.5-2.3-0.5-3.5-0.8c-0.1,0.3-0.1,0.5-0.1,0.6c0,5.5,0,11,0,16.5
		c0,1.2-0.1,2.5,1.3,3.3C137,110.6,136.9,110.6,136.9,110.7z"/>
	<path class="st1" d="M97.8,118.1c0-0.2,0-0.4,0-0.5c-0.3-0.7-0.4-1.6,0.3-1.9c0.7-0.4,1.6-0.4,2.4-0.4c0.2,0,0.4,0.6,0.6,1
		c-0.1,0.1-0.2,0.1-0.2,0.2c-0.2-0.2-0.4-0.6-0.6-0.7c-0.5-0.2-1-0.1-1.5-0.2c0,0.4-0.3,1.1-0.1,1.3c1.1,1.3,2.2,2.6,3.4,3.8
		c0.5,0.5,0.9,0.2,1-0.4c0.3-1.4-0.1-1.9-1.6-2c-0.2,0-0.4,0-0.6-0.2c1,0,1.9,0,3,0c-0.2,0.1-0.3,0.2-0.5,0.3
		c0.6,1.1,0.5,1.9-0.3,2.6c-0.8,0.7-1.4,0.7-3.1-0.5c-0.7,0.8-1.6,1.4-2.6,0.8c-0.5-0.3-0.9-1.1-1-1.7
		C96.3,118.9,96.9,118.3,97.8,118.1c-0.1,0.1-0.2,0.3-0.3,0.5c-0.5,0.7-0.3,1.6,0.4,2.1c0.7,0.5,1.3,0.3,1.9-0.5
		C99,119.5,98.4,118.8,97.8,118.1z"/>
	<path class="st1" d="M120.7,118.5c0,1,0,1.9,0,2.9c-0.3,0-0.8,0-1.2,0c0-2,0-4.1,0-6.2c0.6,0,1.2,0,1.8,0c0.9,0,1.8,0,2.1,1
		c0.3,1-0.3,1.5-1,1.9c0.6,1.1,1.2,2.2,1.8,3.4c-0.7,0.2-1.2-0.1-1.5-0.7c-0.3-0.5-0.4-1.1-0.7-1.6c-0.3-0.4-0.7-0.7-1.1-1
		C120.9,118.3,120.8,118.4,120.7,118.5z M120.7,118.4c0.7-0.3,1.3-0.5,1.6-0.9c0.2-0.3,0.2-1-0.1-1.3c-0.3-0.4-0.9-0.6-1.6-1
		C120.7,116.4,120.7,117.2,120.7,118.4z"/>
	<path class="st1" d="M71.9,119.9c0.6,0.4,1.2,1,1.9,1.3c0.6,0.3,1.3,0.1,1.6-0.5c0.3-0.7-0.1-1.2-0.7-1.5c-0.6-0.3-1.3-0.4-1.8-0.8
		c-0.4-0.4-1-1.1-0.9-1.5c0.1-0.5,0.6-1.3,1.2-1.5c0.7-0.3,1.6-0.2,2.3,0c0.3,0.1,0.5,0.7,0.9,1.2c-1-0.5-1.6-1-2.2-1.1
		c-0.4-0.1-1.1,0.3-1.2,0.7c-0.1,0.3,0.3,1,0.7,1.3c0.4,0.4,1.1,0.4,1.6,0.7c0.7,0.4,1.3,0.8,1.2,1.7c-0.1,0.9-0.7,1.5-1.5,1.6
		c-0.8,0.1-1.7-0.1-2.5-0.4c-0.3-0.1-0.4-0.8-0.6-1.2C71.7,119.9,71.8,119.9,71.9,119.9z"/>
	<path class="st1" d="M113.1,115c-0.1,0.2-0.2,0.4-0.3,0.4c-1.1,0.6-1.5,1.4-1.3,2.7c0.2,1.6,1,2.7,2.2,3c1.2,0.3,2-0.4,1.8-1.6
		c0-0.3-0.2-0.6-0.3-0.9c0.4,0,0.8,0,1.1,0c0.4,1.6,0.1,2.3-1.4,2.7c-1.7,0.6-3.6-0.3-4.2-1.9c-0.6-1.8,0.2-3.5,1.9-4.2
		C112.7,115.3,112.9,115.2,113.1,115L113.1,115z"/>
	<path class="st1" d="M58,115.1c-0.1,0.2-0.2,0.4-0.4,0.5c-0.7,0.7-0.7,1.3,0.1,1.8c0.6,0.4,1.3,0.6,2,0.9c1.2,0.7,1.3,2.3,0,3
		c-1.1,0.6-2.2,0.4-3.1-0.2c-0.3-0.2-0.3-0.8-0.5-1.3c0.1,0,0.2-0.1,0.3-0.1c0.3,0.3,0.5,0.8,0.8,1c0.5,0.3,1.1,0.5,1.7,0.5
		c0.3,0,0.8-0.4,0.9-0.7c0.1-0.3-0.1-0.8-0.4-1c-0.5-0.4-1.1-0.6-1.7-0.9c-0.7-0.3-1.4-0.7-1.3-1.6c0-0.9,0.6-1.4,1.4-1.7
		C57.9,115.2,58,115.1,58,115.1L58,115.1z"/>
	<path class="st1" d="M63.8,115.3c0.3,0,0.7,0,1.1,0c0,1.4-0.1,2.8,0,4.3c0.1,1.1,0.7,1.7,1.8,1.8c1,0,1.6-0.5,1.8-1.6
		c0.1-1.4,0.4-2.9-0.4-4.4c0.3,0,0.6,0,0.7,0c0,1.3,0,2.5,0,3.8c-0.1,2.1-1.4,3-3.3,2.4c-1.1-0.3-1.6-1.1-1.6-2.4
		C63.8,117.8,63.8,116.6,63.8,115.3z"/>
	<path class="st1" d="M143.1,121.5c-1.4,0-2.7,0-4,0c0-2.1,0-4.1,0-6.2c0.3,0,0.8,0,1.1,0c0,1.5,0,3,0,4.5c0,0.5,0.2,1.4,0.3,1.3
		c0.7,0,1.4-0.2,2.1-0.4c0.1,0,0.2-0.2,0.5-0.5C143.1,120.8,143.1,121.1,143.1,121.5z"/>
	<path class="st1" d="M136.1,120.3c0,0.5-0.1,0.8-0.1,1.1c-1.4,0-2.7,0-4,0c0-2.1,0-4.1,0-6.2c0.4,0,0.8,0,1.1,0c0,1.5,0,3.1,0,4.6
		c0,0.5,0.1,1.3,0.3,1.3c0.7,0.1,1.3,0,2-0.2C135.5,121,135.7,120.7,136.1,120.3z"/>
	<path class="st1" d="M84.5,121.5c-0.4,0-0.8,0-1.2,0c0-1,0-2,0-3.1c-0.8,0-1.5,0-2.2,0c0-0.1,0-0.1,0-0.2c0.7,0,1.5,0,2.3,0
		c0-1,0-1.9,0-2.9c0.4,0,0.8,0,1.2,0C84.5,117.4,84.5,119.4,84.5,121.5z"/>
	<path d="M6.7,110.9c-0.2-2.3-0.5-4.5-0.6-6.8c-0.1-2.7-0.1-5.5,0-8.3c0.1-2.7,0.5-5.4,0.9-8.1c-0.2,1.8-0.3,3.6-0.5,5.4
		c-0.5,5.5-0.3,11,0.2,16.5c0.1,0.5,0.1,1.1,0.1,1.6c0,0.1-0.2,0.3-0.3,0.4C6.6,111.5,6.6,111.2,6.7,110.9z"/>
	<path class="st1" d="M80.5,121.5c-0.4,0-0.8,0-1.2,0c0-2,0-4.1,0-6.2c0.4,0,0.8,0,1.2,0C80.5,117.3,80.5,119.4,80.5,121.5z"/>
	<path class="st1" d="M88,115.3c0.4,0,0.8,0,1.2,0c0,2.1,0,4.1,0,6.2c-0.4,0-0.8,0-1.2,0C88,119.4,88,117.4,88,115.3z"/>
	<path class="st1" d="M127.2,121.4c0-2.1,0-4.1,0-6.1c0.4,0,0.8,0,1.2,0c0,2,0,4,0,6.1C128.1,121.4,127.7,121.4,127.2,121.4z"/>
	<path class="st1" d="M113.1,115.1c0.5,0.1,1.1,0.1,1.6,0.2c1,0.2,1.1,0.2,1,1.3C114.9,116,114,115.5,113.1,115.1
		C113.1,115,113.1,115.1,113.1,115.1z"/>
	<path class="st1" d="M58,115.1c0.5,0.1,1,0.1,1.5,0.2c0.8,0.1,1.1,0.5,0.9,1.2C59.7,116,58.9,115.5,58,115.1
		C58,115.1,58,115.1,58,115.1z"/>
	<path d="M11.9,74.1c-7.5,26.5-4.9,51.8,9.3,75.6c-0.1,0-0.2,0.1-0.3,0.1c-1.1-1.9-2.3-3.8-3.3-5.8c-5.5-10.4-8.7-21.6-10-33.2
		C6.3,98.6,7.5,86.7,11,74.9c0.1-0.4,0.4-0.7,0.6-1C11.7,74,11.8,74.1,11.9,74.1z"/>
	<path d="M58.6,16.5c-0.3,0.2-0.5,0.4-0.8,0.6C45,23.7,34.4,33,25.5,44.3c-3.3,4.3-6.2,8.8-8.8,13.6c-0.2,0.4-0.5,0.7-0.8,1l0,0
		c0.9-1.8,1.7-3.6,2.7-5.3c6.2-10.5,14.2-19.5,23.8-27.1c4.7-3.7,9.7-7,15.1-9.7C57.9,16.8,58.3,16.7,58.6,16.5
		C58.6,16.5,58.6,16.5,58.6,16.5z"/>
	<path d="M53.6,21C68.9,12.1,85.4,7.9,103,8.6C85.5,8.4,69,12.5,53.6,21z"/>
	<path d="M129.8,189.4c-0.9,0.3-1.8,0.7-2.7,1c-5.2,1.5-10.4,2.6-15.8,3.2c-2.2,0.3-4.4,0-6.6-0.1c2.9-0.3,5.7-0.9,8.6-0.9
		c5.6,0,10.7-1.8,15.9-3.2C129.5,189.4,129.7,189.4,129.8,189.4C129.8,189.4,129.8,189.4,129.8,189.4z"/>
	<path d="M42.8,173.3c3.1,2.1,6.3,4.3,9.4,6.4c0,0.1-0.1,0.1-0.1,0.2c-3.1-2.1-6.3-4.3-9.4-6.4C42.7,173.4,42.8,173.4,42.8,173.3z"
		/>
	<path d="M73.3,190.3c-2.9-1.1-5.8-2.1-8.7-3.2c0-0.1,0.1-0.2,0.1-0.2c2.9,1.1,5.8,2.1,8.7,3.2C73.3,190.2,73.3,190.2,73.3,190.3z"
		/>
	<path d="M63.6,14.3c1.7-0.7,3.5-1.5,5.2-2.2c0,0.1,0.1,0.2,0.1,0.3C67.1,13,65.4,13.6,63.6,14.3L63.6,14.3z"/>
	<path d="M63.6,14.2c-1.7,0.8-3.3,1.5-5,2.3c0,0,0,0,0,0C60.3,15.8,61.9,15,63.6,14.2C63.6,14.3,63.6,14.2,63.6,14.2z"/>
	<path d="M55.5,181.5c1.2,0.6,2.5,1.3,3.7,1.9c0,0.1-0.1,0.1-0.1,0.2c-1.2-0.6-2.5-1.2-3.7-1.8C55.5,181.7,55.5,181.6,55.5,181.5z"
		/>
	<path d="M15.9,58.9c-0.5,1.1-0.9,2.3-1.4,3.4c-0.1-0.1-0.2-0.1-0.4-0.2C14.8,61.1,15.4,60,15.9,58.9C16,59,15.9,58.9,15.9,58.9z"/>
	<path class="st0" d="M154.3,103.7c0.8-0.3,1.7-0.6,2.6-0.9c-0.3,0.9-0.6,1.7-0.9,2.5c0.1,0,0.2,0.1,0.3,0.1
		c0.3-0.8,0.7-1.5,1.1-2.3c0.2-0.3,0.5-0.7,0.8-0.9c2.5-1.1,5.1-2.1,7.7-3.1c0.1,0,0.2,0,0.4,0c0.6,2.8,1.2,5.6-0.3,8.3
		c-1.3,2.4-4.6,3.4-7.4,2.2c-1.2-0.5-2.3-1.3-3.2-2.2c-3-3.3-4.2-7.3-3.6-11.8c0.6-4.5,5-6.7,9-4.5c0.6,0.3,0.7,0.6,0.4,1.3
		c-1.2,2.8-2.3,5.6-3.4,8.4c-0.3,0.8-0.8,1.4-1.7,1.7c-0.7,0.2-1.3,0.6-2,0.9C154.2,103.5,154.2,103.6,154.3,103.7z"/>
	<path d="M162.4,92.2c1.8,1.7,2.8,3.6,3.6,5.9c-2.6,1.1-5.1,2.2-7.6,3.4c-0.1-0.1-0.1-0.1-0.2-0.2C159.6,98.3,161,95.3,162.4,92.2z"
		/>
	<path class="st0" d="M114,102.4c-2.5,0-4.9,0-7.5,0c1.2-3,2.4-5.9,3.7-9.1C111.5,96.5,112.7,99.4,114,102.4z"/>
	<path class="st0" d="M65.5,93.2c1.3,3.2,2.6,6.1,3.8,9.1c-2.5,0-5,0-7.5,0C63.1,99.4,64.3,96.4,65.5,93.2z"/>
	<path class="st0" d="M97.8,118.1c0.6,0.7,1.3,1.4,1.9,2.1c-0.6,0.7-1.1,1-1.9,0.5c-0.7-0.5-0.8-1.4-0.4-2.1
		C97.6,118.4,97.7,118.3,97.8,118.1C97.8,118.1,97.8,118.1,97.8,118.1z"/>
	<path class="st0" d="M120.7,118.4c0-1.1,0-2,0-3.2c0.6,0.4,1.2,0.6,1.6,1c0.2,0.3,0.3,1,0.1,1.3C122,117.9,121.4,118,120.7,118.4z"
		/>
</g>
</svg>
